<svg xmlns="http://www.w3.org/2000/svg" viewBox="0 0 240 280" role="img" aria-label="Punch2Pen knuckle mark">
<title>Punch2Pen knuckle mark</title>
<path d="M122.0 6.0 L172.0 6.0 L99.0 208.0 L136.0 208.0 L70.0 276.0 L76.0 236.0 L39.0 236.0 Z" fill="#43C7A3" stroke="#F3F4F6" stroke-width="7" stroke-linejoin="round" stroke-linecap="round"/>
<rect x="40" y="100" width="170" height="72" rx="18" fill="#22242A" stroke="#F3F4F6" stroke-width="7" stroke-linejoin="round" stroke-linecap="round"/>
<path d="M172 105.0A21.0 21.0 0 0 1 214 105.0V151.0A21.0 21.0 0 0 1 172 151.0Z" fill="#22242A" stroke="#F3F4F6" stroke-width="7" stroke-linejoin="round" stroke-linecap="round"/>
<path d="M126 93.0A23.0 23.0 0 0 1 172 93.0V158.0A23.0 23.0 0 0 1 126 158.0Z" fill="#22242A" stroke="#F3F4F6" stroke-width="7" stroke-linejoin="round" stroke-linecap="round"/>
<path d="M80 89.0A23.0 23.0 0 0 1 126 89.0V161.0A23.0 23.0 0 0 1 80 161.0Z" fill="#22242A" stroke="#F3F4F6" stroke-width="7" stroke-linejoin="round" stroke-linecap="round"/>
<path d="M34 101.0A23.0 23.0 0 0 1 80 101.0V155.0A23.0 23.0 0 0 1 34 155.0Z" fill="#22242A" stroke="#F3F4F6" stroke-width="7" stroke-linejoin="round" stroke-linecap="round"/>
<path d="M123.0 156H203.0A23.0 23.0 0 0 1 203.0 202H123.0A23.0 23.0 0 0 1 123.0 156Z" fill="#22242A" stroke="#F3F4F6" stroke-width="7" stroke-linejoin="round" stroke-linecap="round"/>
<path d="M1.5 7.2C1.5 3 4.8 .6 9 .6s7.6 2.6 7.6 6.6c0 3.4-2.2 5.4-5.8 8.6L1.6 25.4H17" transform="translate(47.7 100)" fill="none" stroke="#F3F4F6" stroke-width="5" stroke-linecap="round" stroke-linejoin="round"/>
<path d="M2 25.6V.6h8c4.6 0 7 2.7 7 6.7s-2.4 6.9-7 6.9H2" transform="translate(93.7 88)" fill="none" stroke="#F3F4F6" stroke-width="5" stroke-linecap="round" stroke-linejoin="round"/>
<path d="M16.4.6H2v24.8h14.4M2 13h11.4" transform="translate(139.7 92)" fill="none" stroke="#F3F4F6" stroke-width="5" stroke-linecap="round" stroke-linejoin="round"/>
<path d="M2 25.8V.6l14.2 25V.2" transform="translate(183.7 106)" fill="none" stroke="#F3F4F6" stroke-width="5" stroke-linecap="round" stroke-linejoin="round"/>
</svg>
